<?xml version="1.0" encoding="UTF-8" standalone="no"?>
<svg
   xmlns:dc="http://purl.org/dc/elements/1.1/"
   xmlns:cc="http://creativecommons.org/ns#"
   xmlns:rdf="http://www.w3.org/1999/02/22-rdf-syntax-ns#"
   xmlns:svg="http://www.w3.org/2000/svg"
   xmlns="http://www.w3.org/2000/svg"
   xmlns:sodipodi="http://sodipodi.sourceforge.net/DTD/sodipodi-0.dtd"
   xmlns:inkscape="http://www.inkscape.org/namespaces/inkscape"
   width="682.667"
   height="682.667"
   viewBox="0 0 512 512"
   version="1.1"
   id="svg26"
   sodipodi:docname="icon.svg"
   inkscape:version="0.92.3 (2405546, 2018-03-11)">
  <metadata
     id="metadata32">
    <rdf:RDF>
      <cc:Work
         rdf:about="">
        <dc:format>image/svg+xml</dc:format>
        <dc:type
           rdf:resource="http://purl.org/dc/dcmitype/StillImage" />
      </cc:Work>
    </rdf:RDF>
  </metadata>
  <defs
     id="defs30" />
  <sodipodi:namedview
     pagecolor="#ffffff"
     bordercolor="#666666"
     borderopacity="1"
     objecttolerance="10"
     gridtolerance="10"
     guidetolerance="10"
     inkscape:pageopacity="0"
     inkscape:pageshadow="2"
     inkscape:window-width="2400"
     inkscape:window-height="1284"
     id="namedview28"
     showgrid="false"
     inkscape:zoom="0.48889781"
     inkscape:cx="261.95595"
     inkscape:cy="-73.855203"
     inkscape:window-x="-9"
     inkscape:window-y="-9"
     inkscape:window-maximized="1"
     inkscape:current-layer="svg26" />
  <g
     transform="matrix(0.10800964,0,0,-0.10800964,-19.459434,541.91673)"
     id="g24"
     style="fill-rule:evenodd">
    <path
       d="m 1029.63,3919.28 c -17.574,-44.238 2255.42,-2249.101 2965.622,-2959.206 69.831,75.559 214.859,176.899 131.163,269.606 -245.849,223.053 -1800.584,1893.903 -2831.475,2839.446 -112.149,40.683 -214.723,-97.577 -265.29,-149.846 z"
       id="path2"
       inkscape:connector-curvature="0"
       style="fill:#b4845c" />
    <path
       d="M 885.723,3621.231 C 990.037,3500.79 3532.502,1012.265 3748.693,796.464 c 64.4,-54.164 175.285,87.164 246.5,163.601 -172.136,229.634 -2816.796,2792.105 -2965.622,2959.206 -92.044,-65.93 -194.406,-191.354 -143.907,-298.02 z"
       id="path4"
       inkscape:connector-curvature="0"
       style="fill:#8c6444" />
    <path
       d="m 356.426,1348.313 c 130.327,438.01 347.003,847.547 616.581,1216.072 106.462,157.399 230.519,302.725 352.496,448.654 73.528,-88.374 209.59,-227.02 317.88,-103.42 128.985,124.708 249.3,257.805 383.097,377.245 154.561,132.028 -110.428,251.137 -77.216,348.384 307.284,255.647 631.541,495.479 989.383,676.189 205.469,107.794 420.347,199.306 645.257,258.408 -1103.991,730.12 -3828.44,-2445.267 -3227.5,-3221.473 z"
       id="path6"
       inkscape:connector-curvature="0"
       style="fill:#848c94" />
    <path
       d="M 270.049,1604.651 C 665.151,3029.526 1867.565,4144.307 3301.675,4672.244 1782.314,4850.893 138.332,2782.034 270.049,1604.651 Z"
       id="path8"
       inkscape:connector-curvature="0"
       style="fill:#93a3ab" />
    <path
       d="m 1840.053,3109.528 -209.425,-207.141 c -5.045,-3.402 -8.506,-8.175 -7.699,-10.615 0.817,-2.44 93.31,87.759 205.537,200.443 l 214.752,218.844 c -1.604,-0.321 -93.028,-91.016 -203.165,-201.532"
       id="path10"
       inkscape:connector-curvature="0"
       style="fill:#907c78" />
    <path
       d="m 1668.307,1389.606 c 82.59,-77.691 137.617,-209.697 133.224,-322.04 182.139,182.673 468.008,445.738 639.123,616.036 -0.17,73.273 -194.98,278.316 -212.506,254.743 l -559.84,-548.739 z"
       id="path12"
       inkscape:connector-curvature="0"
       style="fill:#8f4813" />
    <path
       d="m 1463.781,2837.228 c -194.766,-7.143 -385.459,-260.566 -331.217,-457.14 43.676,-193.901 261.499,-322.079 452.795,-268.022 113.5,16.697 184.802,122.929 256.201,189.361 164.952,-159.625 361.254,-431.059 402.966,-386.907 63.504,49.108 129.85,75.126 140.718,194.309 -233.941,260.411 -617.961,735.505 -921.464,728.409 z M 2468.698,1674.134 c 55.317,-56.5 -42.004,54.433 0,0 z m 62.213,-62.213 c 34.486,-37.579 -20.315,33.355 0,0 z M 1361.266,1498.576 c -204.205,-18.541 -376.963,-221.207 -377.779,-424.556 -7.319,-92.051 54.768,-201.784 126.244,-281.057 183.257,189.108 401.518,386.013 592.016,599.647 113.364,187.942 -269.849,92.789 -340.481,105.957 z m 1786.722,-273.543 c 0.928,-34.731 11.08,26.189 0,0 z m -741.503,-1.944 c 9.299,-21.487 9.299,21.487 0,0 z"
       id="path14"
       inkscape:connector-curvature="0"
       style="fill:#ffcd00" />
    <path
       d="m 2536.063,1586.258 c 78.162,-84.498 25.798,-91.785 -26.566,-146.473 -147.581,-145.637 -129.481,-412.969 35.341,-538.124 150.39,-126.011 400.993,-109.942 521.035,50.692 119.255,136.062 111.945,355.752 -12.475,486.021 -88.186,94.848 -187.806,178.348 -273.378,275.837 -118.506,110.36 -276.722,261.995 -385.401,382.086 -82.086,-87.051 -110.457,-123.921 -172.418,-177.22 152.549,-160.947 204.069,-209.192 313.865,-332.821 z M 1440.238,1485.551 c 65.188,-10.386 21.796,4.069 0,0 z m 42.771,-7.777 c 57.415,-22.989 -9.441,14.827 0,0 z m 29.163,-7.777 c 44.489,-32.456 -1.492,17.117 0,0 z m 189.575,-77.474 -592.017,-599.647 c 98.89,-122.647 281.981,-139.153 424.284,-94.536 180.953,58.944 287.298,197.118 286.53,383.408 16.954,172.175 -118.798,310.774 -118.798,310.774 z"
       id="path16"
       inkscape:connector-curvature="0"
       style="fill:#ff9f22" />
    <path
       d="M 3998.266,4393.12 2092.017,2389.566 c 69.877,-117.466 148.582,-258.661 253.45,-339.071 845.058,769.207 1771.421,1759.562 2499.218,2474.041 -207.393,124.844 -660.519,-42.978 -846.448,-131.415 z"
       id="path18"
       inkscape:connector-curvature="0"
       style="fill:#e8edf5" />
    <path
       d="M 4843.587,4525.138 2345.536,2050.514 c 53.854,-72.977 193.862,-165.205 276.11,-247.608 496.538,465.918 1427.208,1271.967 2034.466,1827.316 77.603,160.86 279.677,816.314 187.524,894.955 z"
       id="path20"
       inkscape:connector-curvature="0"
       style="fill:#cdd4e3" />
    <path
       d="m 1361.266,1498.576 c 117.806,-23.274 245.596,-58.714 340.481,-105.957 99.347,100.902 474.764,465.782 533.186,520.004 -45.912,56.412 -185.551,184.724 -228.429,229.197"
       id="path22"
       inkscape:connector-curvature="0"
       style="fill:#bc5f19" />
  </g>
</svg>
